<?xml version="1.0" encoding="UTF-8"?>
<svg width="48px" height="48px" viewBox="20 20 48 48" version="1.1" xmlns="http://www.w3.org/2000/svg" xmlns:xlink="http://www.w3.org/1999/xlink">
    <title>home_menu</title>
    <g id="页面-1" stroke="none" stroke-width="1" fill="none" fill-rule="evenodd">
        <g id="home_1" transform="translate(-657.000000, -94.000000)">
            <g id="Navigation-Bar" transform="translate(-0.000000, 88.000000)">
                <g id="home_menu" transform="translate(657.000000, 6.000000)">
                    <path d="M64,55 L64,59 L34,59 L34,55 L64,55 Z M64,42 L64,46 L34,46 L34,42 L64,42 Z M64,29 L64,33 L34,33 L34,29 L64,29 Z" id="ic" fill="#05031A"></path>
                    <path d="M30,55 L30,59 L25,59 L25,55 L30,55 Z M30,42 L30,46 L25,46 L25,42 L30,42 Z M30,29 L30,33 L25,33 L25,29 L30,29 Z" id="ic" fill="#05031A"></path>
                </g>
            </g>
        </g>
    </g>
</svg>