<?xml version="1.0" encoding="UTF-8"?>
<svg width="80px" height="80px" viewBox="0 0 80 80" version="1.1" xmlns="http://www.w3.org/2000/svg" xmlns:xlink="http://www.w3.org/1999/xlink">
    <title>pirate_ic_after@2x</title>
    <defs>
        <filter x="-60.3%" y="-50.3%" width="220.7%" height="200.6%" filterUnits="objectBoundingBox" id="filter-1">
            <feGaussianBlur stdDeviation="7.04" in="SourceGraphic"></feGaussianBlur>
        </filter>
    </defs>
    <g id="页面-1" stroke="none" stroke-width="1" fill="none" fill-rule="evenodd">
        <g id="盗版检测" transform="translate(-1007.000000, -771.000000)">
            <g id="pirate_ic_after" transform="translate(1007.000000, 771.000000)">
                <rect id="矩形" x="0" y="0" width="80" height="80"></rect>
                <path d="M15.0506998,14.0671576 C15.3799598,14.0671576 15.7084146,14.099681 16.0312805,14.1642542 L16.0312805,14.1642542 L34.0312805,17.7642542 C35.199841,17.9979663 36.2046958,18.6278408 36.9174106,19.497213 C37.6301253,20.3665852 38.0506998,21.475455 38.0506998,22.6671576 L38.0506998,22.6671576 L38.0506998,39.5710967 C38.0506998,40.7037234 37.6699699,41.7655993 37.0156441,42.6172774 C36.3613183,43.4689555 35.4333966,44.1104358 34.3390131,44.4022714 L34.3390131,44.4022714 L16.3390131,49.2022714 C15.004921,49.5580293 13.652928,49.3393599 12.5455185,48.6982281 C11.438109,48.0570963 10.575283,46.993502 10.2195251,45.6594099 C10.107454,45.2391433 10.0506998,44.8060496 10.0506998,44.3710967 L10.0506998,44.3710967 L10.0506998,19.0671576 C10.0506998,17.6864457 10.6103439,16.4364457 11.5151659,15.5316237 C12.419988,14.6268016 13.669988,14.0671576 15.0506998,14.0671576 Z" id="base" stroke="#40CC92" stroke-width="2" fill-opacity="0.3" fill="#40CC92"></path>
                <path d="M24,29.4776077 C24,27.0046996 25.9176676,25 28.2832168,25 L54.7167832,25 C57.0823325,25 59,27.0046996 59,29.4776077 L59,65.505731 C59,66.5949837 57.9199869,67.3172965 56.9739671,66.860879 L42.6666768,60.3416314 C41.9264115,59.9844715 41.0735885,59.9844715 40.3333232,60.3416314 L26.0260329,66.860879 C25.0800131,67.3172965 24,66.5949837 24,65.505731 L24,29.4776077 Z" id="路径" fill="#5BCF9F" opacity="0.2" filter="url(#filter-1)"></path>
                <g id="编组" transform="translate(20.000000, 23.000000)" fill-rule="nonzero">
                    <path d="M43.9412926,0 L4.0587556,0 C1.82057746,0 0,1.82314471 0,4.06441975 L0,30.8055358 C0,33.0467145 1.82057741,34.8698592 4.0587556,34.8698592 L16.3724416,34.8698592 L13.5292334,43 L34.4707666,42.9748881 L31.4584195,34.8698592 L43.9412926,34.8698592 C46.1794226,34.8698592 48,33.0467145 48,30.8055358 L48,4.06441975 C48,1.82314471 46.1794226,0 43.9412926,0 Z" id="形状" fill="#FFFFFF"></path>
                    <path d="M30,9 L26.3333333,9 L19,27 L22.6666667,27 L30,9 Z M19,21.6 L16.3,19.2 L15.04,18 L16.3,16.8 L19,14.4 L16.3,12 L10,18 L16.3,24 L19,21.6 Z M32.52,19.2 L30,21.6 L32.52,24 L39,18 L32.52,12 L30,14.4 L32.52,16.8 L33.78,18 L32.52,19.2 Z" id="形状" fill="#323643"></path>
                </g>
                <line x1="15" y1="27" x2="15" y2="36.5" id="路径-5" stroke="#40CC92" stroke-width="2"></line>
            </g>
        </g>
    </g>
</svg>