<?xml version="1.0" encoding="UTF-8"?>
<svg width="80px" height="80px" viewBox="0 0 80 80" version="1.1" xmlns="http://www.w3.org/2000/svg" xmlns:xlink="http://www.w3.org/1999/xlink">
    <title>pirate_ic_lie@2x</title>
    <defs>
        <filter x="-54.2%" y="-51.5%" width="208.3%" height="203.0%" filterUnits="objectBoundingBox" id="filter-1">
            <feGaussianBlur stdDeviation="7.04" in="SourceGraphic"></feGaussianBlur>
        </filter>
    </defs>
    <g id="页面-1" stroke="none" stroke-width="1" fill="none" fill-rule="evenodd">
        <g id="盗版检测" transform="translate(-433.000000, -1017.000000)">
            <g id="pirate_ic_lie" transform="translate(433.000000, 1017.000000)">
                <rect id="矩形备份-2" x="0" y="0" width="80" height="80"></rect>
                <g id="phone" transform="translate(45.000000, 24.000000)">
                    <path d="M17.9517438,1 C19.3307114,1 20.5794774,1.55828366 21.4841175,2.46130867 C22.3887576,3.36433368 22.9492718,4.61210004 22.9517358,5.99106546 L22.9517358,5.99106546 L22.989261,26.9910655 C22.9917282,28.3717751 22.4343186,29.6227732 21.5311149,30.5292106 C20.6279111,31.435648 19.3789132,31.9975248 17.9999896,31.9999904 L17.9999896,31.9999904 L6.04825617,32 C4.66928855,32 3.42052259,31.4417163 2.51588252,30.5386913 C1.61124244,29.6356663 1.05072824,28.3879 1.04826416,27.0089345 L1.04826416,27.0089345 L1.01073903,6.00893454 C1.00827182,4.62822487 1.56568136,3.37722683 2.46888511,2.47078941 C3.37208886,1.56435199 4.62108683,1.00247519 6.0000104,1.00000958 L6.0000104,1.00000958 Z" stroke="#40CC92" stroke-width="2" fill-opacity="0.3" fill="#40CC92"></path>
                    <rect id="矩形" fill="#40CB91" x="6" y="12" width="11" height="2"></rect>
                    <rect id="矩形" fill="#40CB91" x="6" y="19" width="11" height="2"></rect>
                </g>
                <g id="browser" transform="translate(12.000000, 17.000000)">
                    <path d="M11.8,7 L33.2,7 C38.0601058,7 42,10.9398942 42,15.8 L42,39.2 C42,44.0601058 38.0601058,48 33.2,48 L11.8,48 C6.9398942,48 3,44.0601058 3,39.2 L3,15.8 C3,10.9398942 6.9398942,7 11.8,7 Z" id="矩形" fill="#5BCF9F" opacity="0.2" filter="url(#filter-1)"></path>
                    <path d="M8,0 L36,0 C40.418278,-1.69980292e-15 44,3.581722 44,8 L44,38 C44,42.418278 40.418278,46 36,46 L8,46 C3.581722,46 -3.47095419e-16,42.418278 0,38 L0,8 C-1.42926142e-15,3.581722 3.581722,-7.65539184e-17 8,0 Z" id="矩形" fill="#FFFFFF"></path>
                    <g id="编组" transform="translate(11.978860, 13.999273)" fill="#323643">
                        <path d="M18.8758169,0.327069237 C19.3226102,0.597903184 19.5906862,0.959015113 19.8587622,1.41040502 C19.9481208,1.50068301 19.9481208,1.59096099 19.9481208,1.68123897 L21.7953431,11.8409978 C21.8847018,11.8409978 21.8847018,12.0215538 21.8847018,12.1118317 C21.8847018,12.6534996 21.7953431,13.2854455 21.5272671,13.7368354 C20.9911152,14.5493373 20.1868872,15.0007272 19.2933006,15.0007272 L14.0211397,15.0007272 C14.3785743,15.993785 14.6759599,16.7646042 14.6759599,17.84794 C14.6759599,18.5701638 14.5866013,19.2923877 14.4078839,19.9243336 C14.139808,21.0979473 13.067504,22.0007272 11.8164828,22.0007272 C10.3867442,22.0007272 9.02113969,20.8062868 9.02113969,19.2715611 L9.02113969,19.0007272 C8.93178103,16.1118317 6.79125815,14.2715611 4.02113969,14.0007272 L0.893586599,14.0007272 C0.35743464,14.0007272 0,13.5493373 0,13.0979473 L0.0211396945,0.778459148 C0.0211396945,0.236791255 0.574346395,0.000727170211 1.02113969,0.000727170211 L17.8250163,2.47739112e-14 C18.2089869,0.00265449707 18.5183823,0.038179694 18.8758169,0.327069237 Z M6,2.99982057 L3,2.99982057 L3,10.9998206 L6,10.9998206 L6,2.99982057 Z" id="形状结合"></path>
                    </g>
                </g>
            </g>
        </g>
    </g>
</svg>