<?xml version="1.0" encoding="UTF-8"?>
<svg width="110px" height="110px" viewBox="0 0 110 110" version="1.1" xmlns="http://www.w3.org/2000/svg" xmlns:xlink="http://www.w3.org/1999/xlink">
    <title>popup_ic_Detection_Lose@2x</title>
    <defs>
        <linearGradient x1="50%" y1="0%" x2="50%" y2="100%" id="linearGradient-1">
            <stop stop-color="#DEDFE3" offset="0%"></stop>
            <stop stop-color="#FFFFFF" offset="100%"></stop>
        </linearGradient>
        <linearGradient x1="50%" y1="0%" x2="50%" y2="100%" id="linearGradient-2">
            <stop stop-color="#DEDFE3" offset="0%"></stop>
            <stop stop-color="#FFFFFF" offset="100%"></stop>
        </linearGradient>
        <path d="M44,10 L13,19.9115044 C13,25.7876106 13,36.159292 13,51.0265487 C13,62.1769912 23.1276596,72.8348083 43.3829787,83 C64.4609929,74.0737463 75,63.4159292 75,51.0265487 C75,38.6371681 75,28.2654867 75,19.9115044 L44,10 Z" id="path-3"></path>
        <filter x="-53.2%" y="-37.0%" width="206.5%" height="190.4%" filterUnits="objectBoundingBox" id="filter-4">
            <feOffset dx="0" dy="6" in="SourceAlpha" result="shadowOffsetOuter1"></feOffset>
            <feGaussianBlur stdDeviation="10" in="shadowOffsetOuter1" result="shadowBlurOuter1"></feGaussianBlur>
            <feColorMatrix values="0 0 0 0 0.850980392   0 0 0 0 0.901960784   0 0 0 0 0.905882353  0 0 0 0.610860331 0" type="matrix" in="shadowBlurOuter1"></feColorMatrix>
        </filter>
    </defs>
    <g id="页面-1" stroke="none" stroke-width="1" fill="none" fill-rule="evenodd">
        <g id="盗版检测_检测失败" transform="translate(-905.000000, -419.000000)">
            <g id="pop" transform="translate(775.000000, 365.000000)">
                <g id="popup_ic_Detection_Lose" transform="translate(130.000000, 54.000000)">
                    <rect id="矩形" x="0" y="0" width="110" height="110"></rect>
                    <g id="ic" transform="translate(10.000000, 6.000000)">
                        <rect id="矩形" fill="url(#linearGradient-1)" x="0" y="16" width="1" height="25"></rect>
                        <rect id="矩形" fill="url(#linearGradient-1)" x="87" y="34" width="1" height="25"></rect>
                        <rect id="矩形" fill="url(#linearGradient-2)" x="6" y="56" width="1" height="17"></rect>
                        <g id="路径-7">
                            <use fill="black" fill-opacity="1" filter="url(#filter-4)" xlink:href="#path-3"></use>
                            <use fill="#FFFFFF" fill-rule="evenodd" xlink:href="#path-3"></use>
                        </g>
                        <polyline id="路径-10" stroke="#C3C5CC" stroke-width="2" opacity="0.5" points="19.003375 47.0281494 35.3324889 47.0281494 40.2312231 33.9648582 44.0413497 47.0281494 52.7502104 47.0281494 55.4717294 52.4711874 58.1932484 47.0281494 67.003375 47.0281494"></polyline>
                        <circle id="椭圆形" stroke="#F22F43" stroke-width="2" fill-opacity="0.174065437" fill="#F22F43" cx="71.5" cy="18.5" r="17.5"></circle>
                        <g id="编组-4" transform="translate(70.999243, 8.008507)" stroke="#F22F43" stroke-width="3">
                            <path d="M0.5,0 C0.5,9.04166667 0.5,13.7083333 0.5,14" id="路径-8"></path>
                            <line x1="0.500757367" y1="16.4914929" x2="0.500757367" y2="19.9914929" id="路径-8"></line>
                        </g>
                    </g>
                </g>
            </g>
        </g>
    </g>
</svg>