<?xml version="1.0" encoding="UTF-8"?>
<svg width="80px" height="80px" viewBox="0 0 80 80" version="1.1" xmlns="http://www.w3.org/2000/svg" xmlns:xlink="http://www.w3.org/1999/xlink">
    <title>pirate_ic_menace@2x</title>
    <defs>
        <filter x="-43.3%" y="-34.9%" width="186.6%" height="170.2%" filterUnits="objectBoundingBox" id="filter-1">
            <feGaussianBlur stdDeviation="5.632" in="SourceGraphic"></feGaussianBlur>
        </filter>
    </defs>
    <g id="页面-1" stroke="none" stroke-width="1" fill="none" fill-rule="evenodd">
        <g id="盗版检测" transform="translate(-1007.000000, -1017.000000)">
            <g id="ic" transform="translate(1007.000000, 1017.000000)">
                <rect id="矩形备份-3" x="0" y="0" width="80" height="80"></rect>
                <g id="编组-2" transform="translate(9.000000, 14.000000)">
                    <path d="M11,2.22826202e-11 L11,2.017 L2.008,2.017 L2.008,11.017 L0.00800000005,11.017 L0.00827245781,0.000909181399 L11,2.22826202e-11 Z" id="形状结合" fill="#40CC92" transform="translate(5.504000, 5.508500) rotate(-180.000000) translate(-5.504000, -5.508500) "></path>
                    <polygon id="矩形" fill="#40CC92" opacity="0.3" transform="translate(14.000000, 13.250000) rotate(-180.000000) translate(-14.000000, -13.250000) " points="18.8460662 17.3466803 28 15.5 28 8.5 -6.36646291e-12 -9.41469125e-14 10 26.5 17 26.5"></polygon>
                    <line x1="10" y1="9.5" x2="0.5" y2="1.13686838e-13" id="路径-4" stroke="#40CC92" stroke-width="2"></line>
                </g>
                <g id="编组-2备份-3" transform="translate(55.000000, 55.500000) rotate(-180.000000) translate(-55.000000, -55.500000) translate(41.000000, 42.000000)">
                    <path d="M11,2.22826202e-11 L11,2 L2.008,2 L2.008,11 L0.00800000005,11 L0.00800000011,4.4110493e-11 L11,2.22826202e-11 Z" id="形状结合" fill="#40CC92" transform="translate(5.504000, 5.500000) rotate(-180.000000) translate(-5.504000, -5.500000) "></path>
                    <polygon id="矩形" fill="#40CC92" opacity="0.3" transform="translate(14.000000, 13.500000) rotate(-180.000000) translate(-14.000000, -13.500000) " points="18.8460662 17.3466803 28 16 28 9 -6.36646291e-12 -9.41469125e-14 10 27 17 27"></polygon>
                    <line x1="10" y1="10" x2="0.5" y2="0.5" id="路径-4" stroke="#40CC92" stroke-width="2"></line>
                </g>
                <path d="M34.3444516,24.2261867 L23.6444516,29.9583295 C20.784845,31.4902616 19,34.4712562 19,37.7153533 L19,51.8916204 C19,55.2387838 20.8988729,58.296146 23.899232,59.77984 L34.599232,65.0710488 C37.057662,66.2867559 39.942338,66.2867559 42.400768,65.0710488 L53.100768,59.77984 C56.1011271,58.296146 58,55.2387838 58,51.8916204 L58,37.7153533 C58,34.4712562 56.215155,31.4902616 53.3555484,29.9583295 L42.6555484,24.2261867 C40.0596964,22.8355516 36.9403036,22.8355516 34.3444516,24.2261867 Z" id="路径-3" fill="#5BCF9F" opacity="0.2" filter="url(#filter-1)"></path>
                <path d="M60.9417397,25.8094779 L40.6311869,17.1289989 C40.2238966,16.9570004 39.7636234,16.9570004 39.3563332,17.1289989 L19.052052,25.8094779 C18.4146252,26.0797681 18,26.7063785 18,27.39443 L18,48.3983313 C18,58.7252033 35.9341708,66.4780296 39.4182894,67.8848216 C39.7957916,68.0383928 40.2104167,68.0383928 40.5817106,67.8848216 C44.0658292,66.4780296 62,58.7313035 62,48.3983313 L62,27.39443 C61.9937917,26.7063785 61.5791665,26.0797681 60.9417397,25.8094779 Z" id="形状" fill="#FFFFFF"></path>
                <polygon id="路径" fill="#323643" points="40 55 40 46 31.5 46 38 30 40 30 40 39 48 39 42 55"></polygon>
            </g>
        </g>
    </g>
</svg>