<?xml version="1.0" encoding="UTF-8"?>
<svg width="600px" height="164px" viewBox="0 0 600 164" version="1.1" xmlns="http://www.w3.org/2000/svg" xmlns:xlink="http://www.w3.org/1999/xlink">
    <title>pre@2x</title>
    <g id="页面-1" stroke="none" stroke-width="1" fill="none" fill-rule="evenodd">
        <g id="home_2" transform="translate(-66.000000, -774.000000)" fill-rule="nonzero">
            <g id="2备份" transform="translate(30.000000, 774.000000)">
                <g id="pre" transform="translate(14.698370, -263.401547)">
                    <path d="M264.459362,373.045477 C221.830606,339.272389 185.062218,296.404877 161.454338,247.170544 C141.362678,205.258055 116.524844,130.657732 155.116457,92.1529385 C169.752909,77.5526618 190.162909,70.7517401 209.335721,63.0319704 C267.599362,39.5687904 315.48798,-6.71365263 381.724617,3.27067929 C435.806415,11.4245504 485.279503,42.6726153 528.103605,75.1506341 C567.512776,105.038515 599.129827,142.718515 612.948721,183.921972 C624.119597,217.210313 624.582638,254.108931 608.506417,279.786028 C603.434666,287.759024 597.009965,294.784231 589.514481,300.54331 C581.563191,306.76543 572.273421,312.430453 562.209504,317.74096 C527.669503,335.958748 497.463282,354.509347 471.887475,384.353818 C449.907475,409.99474 424.86706,426.034786 389.892958,426.606353 C359.737381,427.091099 330.261897,416.296445 304.403925,400.76285 C290.505445,392.391928 277.164062,383.138334 264.459362,373.045477 Z" id="Path" fill="#2B4C65" opacity="0.860970633"></path>
                    <path d="M0.188937717,164.502244 C0.894620443,185.652172 4.05306449,206.64452 9.59575697,227.06136 C15.2823265,247.526159 23.887545,267.161952 35.7060178,284.824574 C49.4908105,305.405845 67.4206328,322.9794 85.7889375,339.737652 C103.636544,356.030016 121.299166,374.775142 142.545012,386.209943 C168.778596,400.323597 191.223418,395.534547 215.990826,384.736916 C223.958875,381.270164 232.536688,377.453996 241.498174,373.630977 C262.093147,365.697185 283.523978,359.98321 305.146645,354.968067 C325.447013,350.261231 348.193291,348.192142 367.616694,340.018555 C374.337808,337.195824 380.695804,333.578344 386.560507,329.241478 C392.843139,324.548345 398.742098,319.355069 404.195724,313.709607 C413.575138,304.110951 421.673361,293.327023 428.284855,281.645576 C434.69081,270.224478 439.863532,258.152507 443.707105,245.635203 C447.982309,233.165858 451.572385,220.285435 454.902111,207.240582 C458.238688,194.195728 461.22585,180.972741 464.014325,167.77716 C468.392298,147.017755 470.296956,126.381674 468.796524,106.944568 C467.289241,87.5143136 462.041154,69.2556295 452.154744,53.2578706 C443.549526,39.5552934 431.977699,27.9629131 418.288825,19.3302894 C402.859723,9.58775705 385.464301,3.38048957 367.356345,1.14696949 C355.106241,-0.305503693 342.725963,-0.380867868 330.455305,0.934579544 C316.245732,2.48297077 302.132078,4.81240889 288.182854,7.90919134 C275.206513,10.6839632 262.305537,13.4039248 249.445668,15.8703887 C236.5858,18.3300013 223.821849,20.5429675 211.105857,22.3106 C198.389866,24.0713811 185.838305,25.3868286 173.410067,26.0514036 C161.207922,26.7433837 148.971521,26.702276 136.776227,25.9143778 C115.516679,24.4687559 96.0932756,25.2703567 78.6019358,30.1142177 C60.4391697,35.0334429 44.0303335,44.9746627 31.2732341,58.8005631 C12.1581389,79.2516595 4.14898253,104.690494 1.20977972,131.951771 C0.0861683884,142.763105 -0.256396042,153.642951 0.188937717,164.502244 Z" id="Path" fill="#40CC92"></path>
                </g>
            </g>
        </g>
    </g>
</svg>