<?xml version="1.0" encoding="UTF-8"?>
<svg width="80px" height="80px" viewBox="0 0 80 80" version="1.1" xmlns="http://www.w3.org/2000/svg" xmlns:xlink="http://www.w3.org/1999/xlink">
    <title>home_advantage_ic_2@2x</title>
    <defs>
        <filter x="-51.4%" y="-42.9%" width="202.9%" height="185.7%" filterUnits="objectBoundingBox" id="filter-1">
            <feGaussianBlur stdDeviation="6" in="SourceGraphic"></feGaussianBlur>
        </filter>
    </defs>
    <g id="页面-1" stroke="none" stroke-width="1" fill="none" fill-rule="evenodd">
        <g id="home_1" transform="translate(-1007.000000, -1004.000000)">
            <g id="优势" transform="translate(433.000000, 878.000000)">
                <g id="home_advantage_ic_2" transform="translate(574.000000, 126.000000)">
                    <rect id="矩形" x="0" y="0" width="80" height="80"></rect>
                    <path d="M45.0080536,15.6402611 C46.3887654,15.6402611 47.6387654,16.1999051 48.5435875,17.1047271 C49.4484095,18.0095492 50.0080536,19.2595492 50.0080536,20.6402611 L50.0080536,20.6402611 L50.0080536,49.0726935 C50.0080536,50.4534054 49.4484095,51.7034054 48.5435875,52.6082274 C47.6387654,53.5130494 46.3887654,54.0726935 45.0080536,54.0726935 L45.0080536,54.0726935 L20.6188644,54.0726935 C19.2381525,54.0726935 17.9881525,53.5130494 17.0833305,52.6082274 C16.1785084,51.7034054 15.6188644,50.4534054 15.6188644,49.0726935 L15.6188644,49.0726935 L15.6188644,20.6402611 C15.6188644,19.2595492 16.1785084,18.0095492 17.0833305,17.1047271 C17.9881525,16.1999051 19.2381525,15.6402611 20.6188644,15.6402611 L20.6188644,15.6402611 Z" id="base" stroke="#40CC92" stroke-width="2" fill-opacity="0.3" fill="#40CC92" transform="translate(32.813459, 34.856477) rotate(-18.000000) translate(-32.813459, -34.856477) "></path>
                    <path d="M24,29.4776077 C24,27.0046996 25.9176676,25 28.2832168,25 L54.7167832,25 C57.0823325,25 59,27.0046996 59,29.4776077 L59,65.505731 C59,66.5949837 57.9199869,67.3172965 56.9739671,66.860879 L42.6666768,60.3416314 C41.9264115,59.9844715 41.0735885,59.9844715 40.3333232,60.3416314 L26.0260329,66.860879 C25.0800131,67.3172965 24,66.5949837 24,65.505731 L24,29.4776077 Z" id="路径" fill="#5BCF9F" opacity="0.2" filter="url(#filter-1)"></path>
                    <path d="M23,26.0106563 C23,23.2433543 25.1916201,21 27.8951049,21 L58.1048951,21 C60.80838,21 63,23.2433544 63,26.0106563 L63,66.3278418 C63,67.5467675 61.7656993,68.3550698 60.6845338,67.8443169 L44.333345,60.5489684 C43.4873274,60.1492896 42.5126726,60.1492896 41.666655,60.5489684 L25.3154662,67.8443169 C24.2343007,68.3550698 23,67.5467675 23,66.3278418 L23,26.0106563 Z" id="路径" fill="#FFFFFF"></path>
                    <g id="编组" transform="translate(33.000000, 31.055556)" fill="#323643" fill-rule="nonzero">
                        <g id="路径">
                            <path d="M9.73783225,15.8523439 L4.41296901,18.8206971 C4.23062573,18.9224016 4.00514532,18.909492 3.83585212,18.787655 C3.66655892,18.6658181 3.58453177,18.4574207 3.62590371,18.254262 L4.83138169,12.3223243 C4.86814518,12.140706 4.80647234,11.9532599 4.6687251,11.827952 L0.172661406,7.72990769 C0.0187651183,7.58958697 -0.0384411731,7.37331607 0.0262246618,7.17629714 C0.0908904966,6.97927821 0.265567104,6.83764952 0.473362083,6.81375581 L6.54302132,6.11591195 C6.72886937,6.09456588 6.88995975,5.97863495 6.96785466,5.81017475 L9.51310933,0.309024486 C9.60029504,0.120720313 9.79029322,0 9.99947395,0 C10.2086547,0 10.3986529,0.120720313 10.4858386,0.309024486 L13.0316283,5.81017475 C13.1095232,5.97863495 13.2706136,6.09456588 13.4564616,6.11591195 L19.5261209,6.81375581 C19.7341591,6.83747444 19.9091029,6.97920373 19.9738033,7.17644197 C20.0385037,7.37368021 19.9810667,7.59016876 19.8268215,7.73043756 L15.3307578,11.827952 C15.1930106,11.9532599 15.1313378,12.140706 15.1681013,12.3223243 L16.3735792,18.254262 C16.4147814,18.4572647 16.3328039,18.6654366 16.1637025,18.7872182 C15.9946011,18.9089999 15.7693611,18.9220767 15.587049,18.8206971 L10.2621857,15.8523439 C10.0991041,15.7613183 9.89984384,15.7613183 9.73676214,15.8523439 L9.73783225,15.8523439 Z"></path>
                        </g>
                    </g>
                </g>
            </g>
        </g>
    </g>
</svg>