<?xml version="1.0" encoding="UTF-8"?>
<svg width="80px" height="80px" viewBox="0 0 80 80" version="1.1" xmlns="http://www.w3.org/2000/svg" xmlns:xlink="http://www.w3.org/1999/xlink">
    <title>home_advantage_ic_1@2x</title>
    <defs>
        <filter x="-40.0%" y="-40.0%" width="180.0%" height="180.0%" filterUnits="objectBoundingBox" id="filter-1">
            <feGaussianBlur stdDeviation="6" in="SourceGraphic"></feGaussianBlur>
        </filter>
    </defs>
    <g id="页面-1" stroke="none" stroke-width="1" fill="none" fill-rule="evenodd">
        <g id="home_2" transform="translate(-433.000000, -1004.000000)">
            <g id="优势" transform="translate(433.000000, 878.000000)">
                <g id="home_advantage_ic_1" transform="translate(0.000000, 126.000000)">
                    <rect id="矩形" x="0" y="0" width="80" height="80"></rect>
                    <path d="M40.5,17.9483384 L66.5218154,61.4602264 C66.8001357,61.9256146 66.947112,62.4577378 66.947112,63 C66.947112,63.8284271 66.6113256,64.5784271 66.0684324,65.1213203 C65.5255392,65.6642136 64.7755392,66 63.947112,66 L63.947112,66 L17.052888,66 C16.5106257,66 15.9785025,65.8530237 15.5131144,65.5747034 C14.8021297,65.1495066 14.3307989,64.4763797 14.1435134,63.7318059 C13.956228,62.987232 14.0529879,62.1712111 14.4781846,61.4602264 L14.4781846,61.4602264 L40.5,17.9483384 Z" id="路径-2" stroke="#40CC92" stroke-width="2" fill-opacity="0.3" fill="#40CC92"></path>
                    <rect id="矩形" fill="#5BCF9F" opacity="0.2" filter="url(#filter-1)" x="18" y="17" width="45" height="45" rx="22.5"></rect>
                    <rect id="矩形" fill="#FFFFFF" x="15" y="9" width="51" height="51" rx="25.5"></rect>
                    <path d="M46.2498031,26 C46.5344268,26 46.8037172,26.12705 46.9857997,26.3465 L46.9857997,26.3465 L51.7774445,32.1215 C52.0601515,32.4612625 52.0745265,32.94925 51.8148193,33.3063375 L51.8148193,33.3063375 L41.2732008,47.6063375 C41.0920767,47.8537 40.804578,48 40.4998294,48 C40.1950808,48 39.9075821,47.8537 39.7264579,47.6063375 L39.7264579,47.6063375 L29.1848394,33.3063375 C28.9251323,32.9502125 28.9404655,32.4612625 29.2222143,32.1215 L29.2222143,32.1215 L34.013859,26.3465 C34.1959415,26.12705 34.465232,26 34.7498557,26 L34.7498557,26 Z M45,31 L36,31 L36,34 L45,34 L45,31 Z" id="diamond" fill="#323643"></path>
                </g>
            </g>
        </g>
    </g>
</svg>