<?xml version="1.0" encoding="UTF-8"?>
<svg width="80px" height="80px" viewBox="0 0 80 80" version="1.1" xmlns="http://www.w3.org/2000/svg" xmlns:xlink="http://www.w3.org/1999/xlink">
    <title>home_advantage_ic_3@2x</title>
    <defs>
        <filter x="-46.2%" y="-43.9%" width="192.3%" height="187.8%" filterUnits="objectBoundingBox" id="filter-1">
            <feGaussianBlur stdDeviation="6" in="SourceGraphic"></feGaussianBlur>
        </filter>
    </defs>
    <g id="页面-1" stroke="none" stroke-width="1" fill="none" fill-rule="evenodd">
        <g id="home_2" transform="translate(-433.000000, -1250.000000)">
            <g id="优势" transform="translate(433.000000, 878.000000)">
                <g id="home_advantage_ic_3" transform="translate(0.000000, 372.000000)">
                    <rect id="矩形备份-2" x="0" y="0" width="80" height="80"></rect>
                    <g id="phone" transform="translate(44.000000, 31.000000)" fill="#40CC92">
                        <path d="M17.9517438,1 C19.3307114,1 20.5794774,1.55828366 21.4841175,2.46130867 C22.3887576,3.36433368 22.9492718,4.61210004 22.9517358,5.99106546 L22.9517358,5.99106546 L22.989261,26.9910655 C22.9917282,28.3717751 22.4343186,29.6227732 21.5311149,30.5292106 C20.6279111,31.435648 19.3789132,31.9975248 17.9999896,31.9999904 L17.9999896,31.9999904 L6.04825617,32 C4.66928855,32 3.42052259,31.4417163 2.51588252,30.5386913 C1.61124244,29.6356663 1.05072824,28.3879 1.04826416,27.0089345 L1.04826416,27.0089345 L1.01073903,6.00893454 C1.00827182,4.62822487 1.56568136,3.37722683 2.46888511,2.47078941 C3.37208886,1.56435199 4.62108683,1.00247519 6.0000104,1.00000958 L6.0000104,1.00000958 Z" stroke="#40CC92" stroke-width="2" fill-opacity="0.3"></path>
                        <rect id="矩形" x="6.46153846" y="26.5833333" width="11.0769231" height="1.83333333" rx="0.916666667"></rect>
                    </g>
                    <g id="browser" transform="translate(12.000000, 18.000000)">
                        <path d="M10.8,6 L32.2,6 C37.0601058,6 41,9.9398942 41,14.8 L41,38.2 C41,43.0601058 37.0601058,47 32.2,47 L10.8,47 C5.9398942,47 2,43.0601058 2,38.2 L2,14.8 C2,9.9398942 5.9398942,6 10.8,6 Z" id="矩形" fill="#5BCF9F" opacity="0.2" filter="url(#filter-1)"></path>
                        <path d="M8,0 L36,0 C40.418278,-1.69980292e-15 44,3.581722 44,8 L44,38 C44,42.418278 40.418278,46 36,46 L8,46 C3.581722,46 -3.47095419e-16,42.418278 0,38 L0,8 C-1.42926142e-15,3.581722 3.581722,-7.65539184e-17 8,0 Z" id="矩形" fill="#FFFFFF"></path>
                        <g id="编组" transform="translate(12.000000, 14.000000)" fill="#323643" fill-rule="nonzero">
                            <g id="编组-4">
                                <path d="M9.4311728,0.147313505 C9.7831643,-0.0491045016 10.2168357,-0.0491045016 10.5688272,0.147313505 L10.5688272,0.147313505 L19.4311549,5.09534686 C19.7845492,5.29254355 20.0016021,5.65757017 19.9999911,6.05196664 L19.9999911,6.05196664 L19.9999911,15.9480334 C20.0016021,16.3424298 19.7845492,16.7074565 19.4311549,16.9046531 L19.4311549,16.9046531 L10.5688272,21.8526865 C10.2168357,22.0491045 9.7831643,22.0491045 9.4311728,21.8526865 L9.4311728,21.8526865 L0.568845107,16.9046746 C0.215450754,16.7074779 -0.00160211536,16.3424513 8.906105e-06,15.9480548 L8.906105e-06,15.9480548 L8.906105e-06,6.05198812 C-0.00160211536,5.65759164 0.215450754,5.29256502 0.568845107,5.09536834 L0.568845107,5.09536834 Z M10,8 C8.34314575,8 7,9.34314575 7,11 C7,12.6568542 8.34314575,14 10,14 C11.6568542,14 13,12.6568542 13,11 C13,9.34314575 11.6568542,8 10,8 Z" id="形状结合"></path>
                            </g>
                        </g>
                        <circle id="椭圆形" fill="#323643" cx="6.48380273" cy="6.50007064" r="1.5"></circle>
                        <circle id="椭圆形备份" fill="#323643" cx="11.4838027" cy="6.50007064" r="1.5"></circle>
                        <circle id="椭圆形备份-2" fill="#323643" cx="16.4838027" cy="6.50007064" r="1.5"></circle>
                    </g>
                </g>
            </g>
        </g>
    </g>
</svg>