<?xml version="1.0" encoding="UTF-8"?>
<svg width="280px" height="156px" viewBox="0 0 280 156" version="1.1" xmlns="http://www.w3.org/2000/svg" xmlns:xlink="http://www.w3.org/1999/xlink">
    <title>home_card_hover@2x</title>
    <g id="页面-1" stroke="none" stroke-width="1" fill="none" fill-rule="evenodd">
        <g id="home_2" transform="translate(-390.000000, -498.000000)" fill-rule="nonzero">
            <g id="下载" transform="translate(390.000000, 498.000000)">
                <g id="Path" transform="translate(-42.301630, -71.507962)">
                    <path d="M140.613,198.34822 C117.947297,180.391075 98.3975517,157.598425 85.8452454,131.420539 C75.1625134,109.135675 61.9562408,69.470695 82.4753955,48.9977027 C90.2575946,41.2347379 101.109588,37.6186889 111.303769,33.5140886 C142.282538,21.0387195 167.744909,-3.56964803 202.962918,1.73901966 C231.718201,6.0744316 258.023034,22.6890227 280.792602,39.9575801 C301.746452,55.8489615 318.557233,75.8834117 325.904737,97.791283 C331.84429,115.490689 332.090489,135.109678 323.542765,148.762187 C320.846115,153.001427 317.430103,156.736729 313.444755,159.79883 C309.217056,163.10713 304.277686,166.119222 298.926703,168.942817 C280.561791,178.629213 264.501147,188.492563 250.902495,204.360863 C239.215732,217.994138 225.901748,226.522628 207.306023,226.82653 C191.272308,227.084269 175.600198,221.344753 161.851518,213.085543 C154.461699,208.634726 147.368088,203.714591 140.613,198.34822 Z" fill="#2B4C65" opacity="0.860970633"></path>
                    <path d="M0.100458154,87.4658166 C0.475669547,98.7112299 2.15501374,109.872858 5.10206244,120.728489 C8.12561056,131.609619 12.7010039,142.049967 18.984884,151.44118 C26.314256,162.384239 35.8475397,171.728095 45.6139643,180.638455 C55.103534,189.301103 64.4947473,199.267883 75.7911602,205.347765 C89.7395527,212.851993 101.673461,210.305655 114.842288,204.564557 C119.078898,202.721285 123.63972,200.692229 128.40454,198.659531 C139.354884,194.441135 150.749654,191.403015 162.246422,188.736464 C173.040125,186.233841 185.134317,185.133706 195.461737,180.787811 C199.035353,179.286966 202.415898,177.363552 205.53416,175.057641 C208.874634,172.562303 212.01111,169.801039 214.910802,166.799348 C219.897835,161.695744 224.203659,155.961931 227.718989,149.750908 C231.125034,143.678312 233.87537,137.259647 235.918997,130.604198 C238.192122,123.974249 240.100965,117.125731 241.87138,110.189784 C243.645437,103.253838 245.233711,96.2231777 246.716342,89.2070889 C249.04411,78.1693169 250.056816,67.1971158 249.259037,56.8624097 C248.457615,46.5313465 245.667207,36.8232071 240.410605,28.3172013 C235.835212,21.0315432 229.682474,14.8678764 222.404101,10.2779118 C214.20045,5.09780889 204.951307,1.79740577 195.32331,0.609843494 C188.809932,-0.162436265 182.22734,-0.202507384 175.703033,0.496915794 C168.147805,1.32019516 160.643577,2.55875704 153.226777,4.20531577 C146.327259,5.68066154 139.467812,7.12686467 132.630222,8.43828313 C125.792632,9.74605876 119.006041,10.9226925 112.244951,11.8625424 C105.48386,12.7987495 98.810197,13.4981727 92.2021051,13.8515271 C85.7142266,14.2194528 79.2081339,14.1975959 72.7238982,13.7786705 C61.4201996,13.0100336 51.0927792,13.4362446 41.7926367,16.0117247 C32.1354969,18.627276 23.4109213,23.913021 16.6279736,31.26425 C6.46448051,42.1380947 2.20601335,55.663919 0.643239683,70.1587358 C0.0458157183,75.90712 -0.136325734,81.6919326 0.100458154,87.4658166 Z" fill="#40CC92"></path>
                </g>
            </g>
        </g>
    </g>
</svg>