<?xml version="1.0" encoding="UTF-8"?>
<svg width="20px" height="20px" viewBox="0 0 20 20" version="1.1" xmlns="http://www.w3.org/2000/svg" xmlns:xlink="http://www.w3.org/1999/xlink">
    <title>home_btn_ic_Recommended@2x</title>
    <g id="页面-1" stroke="none" stroke-width="1" fill="none" fill-rule="evenodd">
        <g id="home_1" transform="translate(-842.000000, -1635.000000)">
            <g id="2" transform="translate(827.000000, 1628.000000)">
                <g id="home_btn_ic_Recommended" transform="translate(15.000000, 7.000000)">
                    <rect id="矩形" x="0" y="0" width="20" height="20"></rect>
                    <g id="ic" transform="translate(2.000000, 2.000000)">
                        <path d="M9.47617593,0.500473225 C10.1574827,0.517383539 10.7198329,0.774837215 11.0891702,1.26936168 C11.9730765,2.4511755 11.6485982,4.8231157 11.4255957,5.89847238 C11.3897892,6.07113736 11.3430907,6.27551364 11.2846184,6.5 L11.2846184,6.5 L14.5,6.5 C15.1827486,6.5 15.7213885,6.6834055 16.0751058,7.09447927 C16.5740656,7.67378186 16.5125383,8.18096462 16.4586934,8.4955464 C16.3639969,9.05328098 16.0002494,10.8822436 15.6759525,12.5134957 C15.5225007,13.284353 15.3935634,13.9344175 15.3087098,14.3677125 C15.1907112,14.9675555 15.0453892,15.6063745 14.6032852,16.0326708 C14.2953047,16.3296393 13.8385279,16.5 13.1694979,16.5 L13.1694979,16.5 L2,16.5 C1.55681538,16.5 1.17797427,16.3537975 0.912824931,16.0886481 C0.645353117,15.8211763 0.5,15.4396977 0.5,15 L0.5,15 L0.5,8 C0.5,7.60758592 0.668814348,7.21663668 0.954067256,6.93138377 C1.2146361,6.67081492 1.57540642,6.5 2,6.5 L2,6.5 L4,6.5 C4.78647326,6.5 5.5114173,6.27556794 6.10929785,5.8769809 C6.71267636,5.47472857 7.18793378,4.89462615 7.46600563,4.18121465 C7.68988288,3.60549928 7.73268995,3.12538394 7.76599899,2.70442726 C7.85921373,1.83676954 8.05830888,1.31803157 8.38413565,0.967018996 C8.66990731,0.659157715 9.04746702,0.489962012 9.47617593,0.500473225 Z" id="形状" stroke="#4D5366" fill-rule="nonzero"></path>
                        <rect id="矩形" fill="#4D5366" x="4" y="6" width="1" height="10"></rect>
                    </g>
                </g>
            </g>
        </g>
    </g>
</svg>