<?xml version="1.0" encoding="UTF-8"?>
<svg width="20px" height="20px" viewBox="0 0 20 20" version="1.1" xmlns="http://www.w3.org/2000/svg" xmlns:xlink="http://www.w3.org/1999/xlink">
    <title>home_btn_ic_love@2x</title>
    <g id="页面-1" stroke="none" stroke-width="1" fill="none" fill-rule="evenodd">
        <g id="home_1" transform="translate(-837.000000, -1584.000000)">
            <g id="1" transform="translate(820.000000, 1576.000000)">
                <g id="home_btn_ic_love" transform="translate(17.000000, 8.000000)">
                    <rect id="矩形" x="0" y="0" width="20" height="20"></rect>
                    <path d="M13.2276786,2.5 C14.5690115,2.5 15.7843663,3.06698022 16.6650149,3.97949583 C17.5518953,4.89846856 18.1,6.16760198 18.1000366,7.56067355 C18.0910935,8.29981407 17.9949259,8.7820493 17.7903479,9.32113252 C17.7173609,9.52160557 17.6264684,9.72538617 17.5128757,9.94635991 C16.4903348,11.7164534 15.205456,13.1848093 13.4386249,14.7801707 C12.5148592,15.6144583 11.503723,16.442995 10.4289556,17.243391 C10.2022752,17.4170563 9.99665042,17.5 9.78625,17.5 C9.58473442,17.5 9.39274512,17.4325001 9.22556191,17.3059108 C7.65419131,16.1413814 6.49396261,15.1251773 5.78678982,14.4669211 C3.81006057,12.6371871 2.49414505,10.9903171 1.89903373,9.5668563 C1.63570689,8.92132979 1.51178571,8.37505945 1.51178267,7.87081992 C1.50643321,6.33856297 2.03932277,5.0005583 2.91470963,4.04155588 C3.79444156,3.07779337 5.01923663,2.5 6.37232143,2.5 C7.02838188,2.5 7.66664533,2.63740029 8.27304502,2.91000222 C8.70733122,3.10521158 9.10974207,3.3594533 9.46929481,3.6732007 C10.4855842,3.36184548 10.8863916,3.10538431 11.3205824,2.91021757 C11.9290791,2.63747043 12.5694764,2.5 13.2276786,2.5 L13.2276786,2.5 Z" id="路径" stroke="#4D5366" fill-rule="nonzero"></path>
                </g>
            </g>
        </g>
    </g>
</svg>