<?xml version="1.0" encoding="UTF-8"?>
<svg width="80px" height="80px" viewBox="0 0 80 80" version="1.1" xmlns="http://www.w3.org/2000/svg" xmlns:xlink="http://www.w3.org/1999/xlink">
    <title>home_advantage_ic_4@2x</title>
    <defs>
        <filter x="-46.2%" y="-37.4%" width="192.3%" height="175.1%" filterUnits="objectBoundingBox" id="filter-1">
            <feGaussianBlur stdDeviation="6" in="SourceGraphic"></feGaussianBlur>
        </filter>
    </defs>
    <g id="页面-1" stroke="none" stroke-width="1" fill="none" fill-rule="evenodd">
        <g id="home_2" transform="translate(-1007.000000, -1250.000000)">
            <g id="优势" transform="translate(433.000000, 878.000000)">
                <g id="home_advantage_ic_4" transform="translate(574.000000, 372.000000)">
                    <rect id="矩形备份-3" x="0" y="0" width="80" height="80"></rect>
                    <g id="编组-5" transform="translate(13.000000, 15.000000)" fill="#40CC92">
                        <path d="M10.992,0 L10.992,1.855 L5.83833432,1.8558267 C3.69668792,1.8572328 1.94804167,3.54041313 1.84197765,5.65623842 L1.83688453,5.85582644 L1.834,11.017 L0,11.017 L0.000272457757,6.00090918 C0.000272457757,2.68720068 2.68656396,0.000909181377 6.00027246,0.000909181377 L10.992,0 Z" id="形状结合"></path>
                        <rect id="矩形" opacity="0.3" x="1.8460662" y="1.86368027" width="9.1539338" height="9.13631973"></rect>
                    </g>
                    <g id="编组-5备份-2" transform="translate(18.500000, 59.491500) scale(1, -1) translate(-18.500000, -59.491500) translate(13.000000, 53.983000)" fill="#40CC92">
                        <path d="M10.992,0 L10.992,1.855 L5.83833432,1.8558267 C3.69668792,1.8572328 1.94804167,3.54041313 1.84197765,5.65623842 L1.83688453,5.85582644 L1.834,11.017 L0,11.017 L0.000272457757,6.00090918 C0.000272457757,2.68720068 2.68656396,0.000909181377 6.00027246,0.000909181377 L10.992,0 Z" id="形状结合"></path>
                        <rect id="矩形" opacity="0.3" x="1.8460662" y="1.86368027" width="9.1539338" height="9.13631973"></rect>
                    </g>
                    <g id="编组-5备份" transform="translate(60.500000, 20.508500) scale(-1, 1) translate(-60.500000, -20.508500) translate(55.000000, 15.000000)" fill="#40CC92">
                        <path d="M10.992,0 L10.992,1.855 L5.83833432,1.8558267 C3.69668792,1.8572328 1.94804167,3.54041313 1.84197765,5.65623842 L1.83688453,5.85582644 L1.834,11.017 L0,11.017 L0.000272457757,6.00090918 C0.000272457757,2.68720068 2.68656396,0.000909181377 6.00027246,0.000909181377 L10.992,0 Z" id="形状结合"></path>
                        <rect id="矩形" opacity="0.3" x="1.8460662" y="1.86368027" width="9.1539338" height="9.13631973"></rect>
                    </g>
                    <g id="编组-5备份-3" transform="translate(60.500000, 59.491500) scale(-1, -1) translate(-60.500000, -59.491500) translate(55.000000, 53.983000)" fill="#40CC92">
                        <path d="M10.992,0 L10.992,1.855 L5.83833432,1.8558267 C3.69668792,1.8572328 1.94804167,3.54041313 1.84197765,5.65623842 L1.83688453,5.85582644 L1.834,11.017 L0,11.017 L0.000272457757,6.00090918 C0.000272457757,2.68720068 2.68656396,0.000909181377 6.00027246,0.000909181377 L10.992,0 Z" id="形状结合"></path>
                        <rect id="矩形" opacity="0.3" x="1.8460662" y="1.86368027" width="9.1539338" height="9.13631973"></rect>
                    </g>
                    <path d="M34.3444516,24.2261867 L23.6444516,29.9583295 C20.784845,31.4902616 19,34.4712562 19,37.7153533 L19,51.8916204 C19,55.2387838 20.8988729,58.296146 23.899232,59.77984 L34.599232,65.0710488 C37.057662,66.2867559 39.942338,66.2867559 42.400768,65.0710488 L53.100768,59.77984 C56.1011271,58.296146 58,55.2387838 58,51.8916204 L58,37.7153533 C58,34.4712562 56.215155,31.4902616 53.3555484,29.9583295 L42.6555484,24.2261867 C40.0596964,22.8355516 36.9403036,22.8355516 34.3444516,24.2261867 Z" id="路径-3" fill="#5BCF9F" opacity="0.2" filter="url(#filter-1)"></path>
                    <path d="M34.2611331,17.5502182 L22.2611331,24.0080104 C19.0208478,25.7517678 17,29.1341759 17,32.8138687 L17,48.8731033 C17,52.6701945 19.1505147,56.1397037 22.5511412,57.828976 L34.5511412,63.7900149 C37.353679,65.1821847 40.646321,65.1821847 43.4488588,63.7900149 L55.4488588,57.828976 C58.8494853,56.1397037 61,52.6701945 61,48.8731033 L61,32.8138687 C61,29.1341759 58.9791522,25.7517678 55.7388669,24.0080104 L43.7388669,17.5502182 C40.7802293,15.9580292 37.2197707,15.9580292 34.2611331,17.5502182 Z" id="路径-3" fill="#FFFFFF"></path>
                    <polygon id="路径" fill="#323643" points="36 32 36 41 30 41 39.5 51 49 41 43 41 43 32"></polygon>
                </g>
            </g>
        </g>
    </g>
</svg>